<svg width="18" height="17" viewBox="0 0 18 17" fill="none" xmlns="http://www.w3.org/2000/svg">
<path d="M7.99016 1.57313C8.46241 0.837459 9.53759 0.83746 10.0098 1.57313L11.6936 4.19607C11.8657 4.46421 12.1374 4.65289 12.4488 4.7205L15.5058 5.38425C16.4135 5.58134 16.7627 6.69066 16.1317 7.37222L14.1571 9.50478C13.9256 9.75479 13.8113 10.0914 13.8427 10.4307L14.1097 13.3156C14.1923 14.2074 13.3042 14.872 12.4719 14.5414L9.44295 13.3384C9.15846 13.2254 8.84154 13.2254 8.55705 13.3384L5.52811 14.5414C4.69576 14.872 3.80771 14.2074 3.89026 13.3156L4.15733 10.4307C4.18873 10.0914 4.07443 9.75479 3.84294 9.50478L1.86833 7.37222C1.23725 6.69066 1.58651 5.58134 2.49422 5.38425L5.5512 4.7205C5.86258 4.65289 6.13429 4.46421 6.30642 4.19607L7.99016 1.57313Z" fill="#FFE600"/>
</svg>
