<svg width="120" height="120" viewBox="0 0 120 120" fill="none" xmlns="http://www.w3.org/2000/svg">
<rect x="5" y="5" width="110" height="110" rx="55" fill="#142782" fill-opacity="1" stroke="white" stroke-width="10"/>
<path d="M85.8492 61.8907L61.3799 52.3747L35.5732 61.8827C34.8812 62.1373 34.5292 62.904 34.7826 63.5947C34.9812 64.1333 35.4906 64.4667 36.0332 64.4667C36.1866 64.4667 36.3412 64.44 36.4946 64.384L61.3546 55.2253L84.8839 64.376C85.5679 64.6427 86.3439 64.3027 86.6092 63.616C86.8759 62.9307 86.5359 62.1573 85.8492 61.8907Z" fill="white"/>
<path d="M69.3665 43.1333H72.0332C72.7705 43.1333 73.3665 42.536 73.3665 41.8C73.3665 41.064 72.7705 40.4667 72.0332 40.4667H69.3665C68.6292 40.4667 68.0332 41.064 68.0332 41.8C68.0332 42.536 68.6292 43.1333 69.3665 43.1333Z" fill="white"/>
<path d="M62.6998 43.1333H65.3665C66.1038 43.1333 66.6998 42.536 66.6998 41.8C66.6998 41.064 66.1038 40.4667 65.3665 40.4667H62.6998C61.9625 40.4667 61.3665 41.064 61.3665 41.8C61.3665 42.536 61.9625 43.1333 62.6998 43.1333Z" fill="white"/>
<path d="M76.0333 43.1333H78.7C79.4373 43.1333 80.0333 42.536 80.0333 41.8C80.0333 41.064 79.4373 40.4667 78.7 40.4667H76.0333C75.296 40.4667 74.7 41.064 74.7 41.8C74.7 42.536 75.296 43.1333 76.0333 43.1333Z" fill="white"/>
<path d="M58.7002 40.4667H56.0335C55.2962 40.4667 54.7002 41.064 54.7002 41.8C54.7002 42.536 55.2962 43.1333 56.0335 43.1333H58.7002C59.4375 43.1333 60.0335 42.536 60.0335 41.8C60.0335 41.064 59.4375 40.4667 58.7002 40.4667Z" fill="white"/>
<path d="M52.0334 40.4667H49.3668C48.6294 40.4667 48.0334 41.064 48.0334 41.8C48.0334 42.536 48.6294 43.1333 49.3668 43.1333H52.0334C52.7708 43.1333 53.3668 42.536 53.3668 41.8C53.3668 41.064 52.7708 40.4667 52.0334 40.4667Z" fill="white"/>
<path d="M45.3667 40.4667H42.7C41.9627 40.4667 41.3667 41.064 41.3667 41.8C41.3667 42.536 41.9627 43.1333 42.7 43.1333H45.3667C46.104 43.1333 46.7 42.536 46.7 41.8C46.7 41.064 46.104 40.4667 45.3667 40.4667Z" fill="white"/>
<path d="M96.0333 84.4667H83.2173C96.3159 70.544 94.7613 59.4173 94.6839 58.9253L94.5626 58.1573L88.0333 55.7093V38.968C88.0333 36.8534 86.3133 35.1334 84.1986 35.1334H69.3666V22.064C69.3666 19.7134 67.4533 17.8 65.1026 17.8H57.6306C55.2799 17.8 53.3666 19.7134 53.3666 22.064V35.1334H38.5346C36.4199 35.1334 34.6999 36.8534 34.6999 38.968V55.7093L28.1706 58.1573L28.0493 58.9253C27.9733 59.4173 26.4173 70.544 39.5159 84.4667H24.0333C23.296 84.4667 22.7 85.064 22.7 85.8C22.7 86.536 23.296 87.1333 24.0333 87.1333H42.1626H49.1626H73.5719H80.5719H96.0333C96.7706 87.1333 97.3666 86.536 97.3666 85.8C97.3666 85.064 96.7706 84.4667 96.0333 84.4667ZM56.0333 22.064C56.0333 21.1827 56.7493 20.4667 57.6306 20.4667H65.1026C65.9839 20.4667 66.6999 21.1827 66.6999 22.064V35.1334H56.0333V22.064ZM37.3666 38.968C37.3666 38.324 37.8906 37.8 38.5346 37.8H53.3666H69.3666H84.1986C84.8426 37.8 85.3666 38.324 85.3666 38.968V54.7093L62.2386 46.0373C61.6759 45.8253 61.0559 45.8253 60.4933 46.0373L37.3666 54.7093V38.968ZM52.2373 84.4667L54.4946 68.664C54.5106 68.552 54.6106 68.4667 54.7253 68.4667H68.0093C68.1239 68.4667 68.2226 68.552 68.2386 68.6667L70.4959 84.4667H52.2373ZM73.1893 84.4667L70.8773 68.2907C70.6759 66.8707 69.4439 65.8 68.0079 65.8H54.7239C53.2893 65.8 52.0559 66.8707 51.8546 68.2893L49.5426 84.4667H43.2399C31.2573 72.7267 30.5693 62.8067 30.636 60.0813L61.3666 48.5574L92.1039 60.0827C92.1879 62.8013 91.5493 72.6573 79.4933 84.4667H73.1893Z" fill="white"/>
<path d="M81.3667 89.8H42.7C41.9627 89.8 41.3667 90.3973 41.3667 91.1333C41.3667 91.8693 41.9627 92.4667 42.7 92.4667H81.3667C82.104 92.4667 82.7 91.8693 82.7 91.1333C82.7 90.3973 82.104 89.8 81.3667 89.8Z" fill="white"/>
<path d="M70.7002 95.1333H52.0335C51.2962 95.1333 50.7002 95.7306 50.7002 96.4666C50.7002 97.2026 51.2962 97.8 52.0335 97.8H70.7002C71.4375 97.8 72.0335 97.2026 72.0335 96.4666C72.0335 95.7306 71.4375 95.1333 70.7002 95.1333Z" fill="white"/>
</svg>
