<svg width="16" height="15" viewBox="0 0 16 15" fill="none" xmlns="http://www.w3.org/2000/svg">
<path d="M6.99016 1.57313C7.46241 0.83746 8.53759 0.83746 9.00984 1.57313L10.3644 3.6833C10.5365 3.95145 10.8083 4.14012 11.1196 4.20773L13.5547 4.73645C14.4624 4.93354 14.8117 6.04286 14.1806 6.72442L12.6245 8.40505C12.393 8.65505 12.2787 8.99168 12.3101 9.33095L12.5219 11.6196C12.6045 12.5114 11.7165 13.1761 10.8841 12.8455L8.44295 11.8759C8.15846 11.7629 7.84154 11.7629 7.55705 11.8759L5.11589 12.8455C4.28355 13.1761 3.3955 12.5114 3.47805 11.6196L3.68992 9.33095C3.72133 8.99168 3.60703 8.65505 3.37554 8.40505L1.81939 6.72442C1.18831 6.04286 1.53756 4.93354 2.44528 4.73645L4.88036 4.20773C5.19174 4.14012 5.46345 3.95145 5.63558 3.6833L6.99016 1.57313Z" stroke="#1D1B20" stroke-width="1.5"/>
</svg>
