<svg width="46" height="46" viewBox="0 0 46 46" fill="none" xmlns="http://www.w3.org/2000/svg">
<path opacity="0.6" d="M29.0177 26.8387C32.0595 26.8387 34.5218 24.3764 34.5218 21.3346C34.5218 18.2929 32.0595 15.8305 29.0177 15.8305C28.9988 15.8305 28.9799 15.8305 28.961 15.8305C28.4761 11.4537 24.7542 8.04034 20.2325 8.04034C16.6618 8.04034 13.5948 10.1689 12.222 13.2233C12.1779 13.2233 12.1338 13.217 12.0897 13.217C8.33003 13.217 5.28198 16.265 5.28198 20.0247C5.28198 23.7844 8.33003 26.8324 12.0897 26.8324" fill="#57AAFF"/>
<path fill-rule="evenodd" clip-rule="evenodd" d="M28.8983 15.3747C28.4325 12.5435 26.6045 10.1659 24.1069 8.93783C25.1513 6.60501 27.493 4.97974 30.2143 4.97974C33.908 4.97974 36.9024 7.97409 36.9024 11.6678C36.9024 13.6296 36.0577 15.394 34.7123 16.6174C33.7163 15.6322 32.3476 15.0244 30.8377 15.0244C30.1549 15.0244 29.5014 15.1482 28.8983 15.3747Z" fill="#FDCA4F"/>
<path opacity="0.6" fill-rule="evenodd" clip-rule="evenodd" d="M29.2357 26.8345C32.1763 26.7203 34.5219 24.3034 34.5219 21.3346C34.5219 18.2929 32.0596 15.8305 29.0178 15.8305H28.9611C28.9442 15.6773 28.9232 15.5253 28.8984 15.3746C29.5016 15.1482 30.155 15.0244 30.8377 15.0244C33.6716 15.0244 36.0081 17.1656 36.3166 19.924H36.3544C38.2626 19.924 39.8118 21.4732 39.8118 23.3814C39.8118 25.2895 38.2626 26.8388 36.3544 26.8388L29.2357 26.8345Z" fill="#5686DF"/>
<path d="M14.1239 31.0771C14.6943 31.0771 15.1567 30.6147 15.1567 30.0443C15.1567 29.4739 14.6943 29.0115 14.1239 29.0115C13.5535 29.0115 13.0911 29.4739 13.0911 30.0443C13.0911 30.6147 13.5535 31.0771 14.1239 31.0771Z" fill="#57AAFF"/>
<path d="M19.2816 31.0771C19.852 31.0771 20.3144 30.6147 20.3144 30.0443C20.3144 29.4739 19.852 29.0115 19.2816 29.0115C18.7112 29.0115 18.2488 29.4739 18.2488 30.0443C18.2488 30.6147 18.7112 31.0771 19.2816 31.0771Z" fill="#57AAFF"/>
<path d="M24.4457 31.0771C25.0161 31.0771 25.4785 30.6147 25.4785 30.0443C25.4785 29.4739 25.0161 29.0115 24.4457 29.0115C23.8752 29.0115 23.4128 29.4739 23.4128 30.0443C23.4128 30.6147 23.8752 31.0771 24.4457 31.0771Z" fill="#57AAFF"/>
<path d="M29.6036 31.0771C30.174 31.0771 30.6364 30.6147 30.6364 30.0443C30.6364 29.4739 30.174 29.0115 29.6036 29.0115C29.0332 29.0115 28.5708 29.4739 28.5708 30.0443C28.5708 30.6147 29.0332 31.0771 29.6036 31.0771Z" fill="#57AAFF"/>
<path d="M24.0331 6.99415C24.6035 6.99415 25.0659 6.53174 25.0659 5.96134C25.0659 5.39093 24.6035 4.92853 24.0331 4.92853C23.4626 4.92853 23.0002 5.39093 23.0002 5.96134C23.0002 6.53174 23.4626 6.99415 24.0331 6.99415Z" fill="#FDCA4F"/>
<path d="M14.1239 39.4781C14.6943 39.4781 15.1567 39.0157 15.1567 38.4453C15.1567 37.8749 14.6943 37.4125 14.1239 37.4125C13.5535 37.4125 13.0911 37.8749 13.0911 38.4453C13.0911 39.0157 13.5535 39.4781 14.1239 39.4781Z" fill="#57AAFF"/>
<path d="M19.2816 39.4781C19.852 39.4781 20.3144 39.0157 20.3144 38.4453C20.3144 37.8749 19.852 37.4125 19.2816 37.4125C18.7112 37.4125 18.2488 37.8749 18.2488 38.4453C18.2488 39.0157 18.7112 39.4781 19.2816 39.4781Z" fill="#57AAFF"/>
<path d="M24.4457 39.4781C25.0161 39.4781 25.4785 39.0157 25.4785 38.4453C25.4785 37.8749 25.0161 37.4125 24.4457 37.4125C23.8752 37.4125 23.4128 37.8749 23.4128 38.4453C23.4128 39.0157 23.8752 39.4781 24.4457 39.4781Z" fill="#57AAFF"/>
<path d="M29.6034 39.4781C30.1738 39.4781 30.6362 39.0157 30.6362 38.4453C30.6362 37.8749 30.1738 37.4125 29.6034 37.4125C29.033 37.4125 28.5706 37.8749 28.5706 38.4453C28.5706 39.0157 29.033 39.4781 29.6034 39.4781Z" fill="#57AAFF"/>
<path d="M11.5418 35.3532C12.1122 35.3532 12.5747 34.8908 12.5747 34.3203C12.5747 33.7499 12.1122 33.2875 11.5418 33.2875C10.9714 33.2875 10.509 33.7499 10.509 34.3203C10.509 34.8908 10.9714 35.3532 11.5418 35.3532Z" fill="#57AAFF"/>
<path d="M16.7059 35.3532C17.2763 35.3532 17.7387 34.8908 17.7387 34.3203C17.7387 33.7499 17.2763 33.2875 16.7059 33.2875C16.1355 33.2875 15.6731 33.7499 15.6731 34.3203C15.6731 34.8908 16.1355 35.3532 16.7059 35.3532Z" fill="#57AAFF"/>
<path d="M21.8639 35.3532C22.4343 35.3532 22.8967 34.8908 22.8967 34.3203C22.8967 33.7499 22.4343 33.2875 21.8639 33.2875C21.2935 33.2875 20.8311 33.7499 20.8311 34.3203C20.8311 34.8908 21.2935 35.3532 21.8639 35.3532Z" fill="#57AAFF"/>
<path d="M27.0213 35.3532C27.5917 35.3532 28.0541 34.8908 28.0541 34.3203C28.0541 33.7499 27.5917 33.2875 27.0213 33.2875C26.4509 33.2875 25.9885 33.7499 25.9885 34.3203C25.9885 34.8908 26.4509 35.3532 27.0213 35.3532Z" fill="#57AAFF"/>
<path d="M37.1756 6.99421C37.746 6.99421 38.2084 6.5318 38.2084 5.9614C38.2084 5.391 37.746 4.92859 37.1756 4.92859C36.6052 4.92859 36.1428 5.391 36.1428 5.9614C36.1428 6.5318 36.6052 6.99421 37.1756 6.99421Z" fill="#FDCA4F"/>
<path d="M38.8185 11.9227C39.3889 11.9227 39.8513 11.4603 39.8513 10.8899C39.8513 10.3195 39.3889 9.85712 38.8185 9.85712C38.2481 9.85712 37.7856 10.3195 37.7856 10.8899C37.7856 11.4603 38.2481 11.9227 38.8185 11.9227Z" fill="#FDCA4F"/>
<path d="M37.1756 16.8513C37.746 16.8513 38.2084 16.3889 38.2084 15.8185C38.2084 15.2481 37.746 14.7857 37.1756 14.7857C36.6052 14.7857 36.1428 15.2481 36.1428 15.8185C36.1428 16.3889 36.6052 16.8513 37.1756 16.8513Z" fill="#FDCA4F"/>
<path d="M30.6043 3.7085C31.1748 3.7085 31.6372 3.2461 31.6372 2.67569C31.6372 2.10529 31.1748 1.64288 30.6043 1.64288C30.0339 1.64288 29.5715 2.10529 29.5715 2.67569C29.5715 3.2461 30.0339 3.7085 30.6043 3.7085Z" fill="#FDCA4F"/>
</svg>
