<svg width="64" height="64" viewBox="0 0 64 64" fill="none" xmlns="http://www.w3.org/2000/svg">
<path d="M30.7625 28.225C30.7625 29.2879 30.9718 30.3403 31.3785 31.3223C31.7853 32.3043 32.3815 33.1965 33.1331 33.9481C33.8846 34.6997 34.7769 35.2959 35.7589 35.7026C36.7408 36.1094 37.7933 36.3187 38.8562 36.3187C39.9191 36.3187 40.9716 36.1094 41.9535 35.7026C42.9355 35.2959 43.8278 34.6997 44.5793 33.9481C45.3309 33.1965 45.9271 32.3043 46.3339 31.3223C46.7406 30.3403 46.95 29.2879 46.95 28.225C46.95 27.1621 46.7406 26.1096 46.3339 25.1276C45.9271 24.1457 45.3309 23.2534 44.5793 22.5018C43.8278 21.7503 42.9355 21.1541 41.9535 20.7473C40.9716 20.3406 39.9191 20.1312 38.8562 20.1312C37.7933 20.1312 36.7408 20.3406 35.7589 20.7473C34.7769 21.1541 33.8846 21.7503 33.1331 22.5018C32.3815 23.2534 31.7853 24.1457 31.3785 25.1276C30.9718 26.1096 30.7625 27.1621 30.7625 28.225Z" fill="#F4CE26"/>
<path d="M38.8562 37.9625C33.4874 37.9625 29.1187 33.5937 29.1187 28.225C29.1187 22.8562 33.4874 18.4875 38.8562 18.4875C44.2249 18.4875 48.5937 22.8562 48.5937 28.225C48.5937 33.5937 44.2249 37.9625 38.8562 37.9625ZM38.8562 21.7812C35.3062 21.7812 32.4124 24.6687 32.4124 28.225C32.4124 31.7812 35.3062 34.6687 38.8562 34.6687C42.4062 34.6687 45.2937 31.775 45.2937 28.2187C45.2937 24.6625 42.4062 21.7812 38.8562 21.7812Z" fill="#333333"/>
<path d="M31.3811 12.375C32.1186 11.95 33.0624 12.2 33.4874 12.9375L35.0311 15.6062C35.4561 16.3437 35.2061 17.2875 34.4686 17.7125C33.7311 18.1375 32.7874 17.8875 32.3624 17.15L30.8186 14.4812C30.3874 13.7375 30.6436 12.8 31.3811 12.375ZM50.4874 25.4C50.7061 26.225 51.5499 26.7125 52.3749 26.4875L55.3499 25.6875C56.1749 25.4687 56.6624 24.625 56.4374 23.8C56.2186 22.975 55.3749 22.4875 54.5499 22.7125L51.5749 23.5125C50.7561 23.7312 50.2686 24.575 50.4874 25.4ZM49.6624 32.3312C49.4436 33.1562 49.9311 34 50.7499 34.2187L53.7249 35.0187C54.5499 35.2375 55.3936 34.75 55.6124 33.9312C55.8311 33.1062 55.3436 32.2625 54.5249 32.0437L51.5499 31.2437C50.7311 31.025 49.8874 31.5125 49.6624 32.3312ZM41.6061 10.1125C42.4561 10.1125 43.1499 10.8 43.1499 11.6562V14.7375C43.1499 15.5875 42.4624 16.2812 41.6061 16.2812C40.7561 16.2812 40.0624 15.5937 40.0624 14.7375V11.6562C40.0624 10.8062 40.7499 10.1125 41.6061 10.1125ZM52.0499 14.4562C51.4499 13.8562 50.4749 13.8562 49.8686 14.4562L47.6874 16.6375C47.0874 17.2375 47.0874 18.2125 47.6874 18.8187C48.2874 19.4187 49.2624 19.4187 49.8686 18.8187L52.0499 16.6375C52.6561 16.0312 52.6561 15.0562 52.0499 14.4562Z" fill="#333333"/>
<path d="M16.5312 46.3C16.3937 46.3125 16.2625 46.325 16.125 46.3312C12.3437 46.5437 9.1875 43.225 9.1875 39.3937C9.1875 35.5625 12.2937 32.4562 16.125 32.4562C16.3875 32.4562 16.65 32.4688 16.9062 32.5C16.9 32.3562 16.9 32.2125 16.9 32.0687C16.9 26.75 21.2125 22.4375 26.5312 22.4375C31.2312 22.4375 35.1437 25.8 35.9937 30.25C36.425 30.1813 36.8687 30.1437 37.3187 30.1437C41.7875 30.1437 45.4125 33.7687 45.4125 38.2375C45.4 41.0938 43.925 43.6063 41.6875 45.0438C40.425 45.8563 38.925 46.375 37.3125 46.325C37.0937 46.3188 36.8812 46.3062 36.6687 46.2812C36.6 46.2875 36.525 46.2875 36.4562 46.2875H16.5312V46.3Z" fill="white"/>
<path d="M15.7751 47.9875C13.7501 47.9875 11.8188 47.2063 10.2813 45.75C8.5376 44.1 7.5376 41.7813 7.5376 39.3938C7.5376 34.9375 10.9563 31.2563 15.3063 30.85C15.9188 25.2063 20.7126 20.7938 26.5188 20.7938C31.4188 20.7938 35.7063 23.9563 37.2188 28.5H37.3063C42.6814 28.5 47.0501 32.8688 47.0501 38.2375C47.0501 41.5688 45.3813 44.6313 42.5813 46.4313C40.9251 47.5 39.0751 48.0313 37.2626 47.975C37.0501 47.9688 36.8438 47.9563 36.6376 47.9375C36.5751 47.9375 36.5126 47.9438 36.4501 47.9438H16.6126C16.4813 47.9563 16.3501 47.9688 16.2188 47.975C16.0688 47.9813 15.9251 47.9875 15.7751 47.9875ZM16.1188 34.1063C13.2063 34.1063 10.8313 36.4813 10.8313 39.3938C10.8313 40.8813 11.4563 42.325 12.5438 43.3563C13.5251 44.2875 14.7751 44.7625 16.0251 44.6813C16.1313 44.675 16.2438 44.6688 16.3501 44.6563L16.5251 44.6438H36.8313C37.0063 44.6625 37.1813 44.675 37.3563 44.6813C38.8063 44.7313 40.0313 44.15 40.7876 43.6563C42.6501 42.4688 43.7563 40.4438 43.7563 38.2375C43.7563 34.6875 40.8626 31.7938 37.3126 31.7938C36.9563 31.7938 36.6001 31.825 36.2563 31.8813L34.6688 32.1438L34.3688 30.5625C33.6501 26.8125 30.3563 24.0875 26.5251 24.0875C22.1188 24.0875 18.5376 27.6688 18.5376 32.075C18.5376 32.1938 18.5376 32.3125 18.5438 32.4313L18.6313 34.3625L16.7126 34.1438C16.5188 34.1188 16.3251 34.1063 16.1188 34.1063Z" fill="#333333"/>
</svg>
